# xmcd CD database file
#
# Track frame offsets:
#	150
#	18597
#	48375
#	70407
#
# Disc length: 1245 seconds
#
# Revision: 0
# Processed by: cddbd v1.5PL3 Copyright (c) Steve Scherf et al.
# Submitted via: CDex 1.40Release
#
DISCID=3204db04
DTITLE=Dir en grey - DRAIN AWAY
DYEAR=2003
DGENRE=Visual_Rock
TTITLE0=DRAIN AWAY
TTITLE1=DRAIN AWAY -NEO TOKYO TRANS-
TTITLE2=逆上堪能ケロイドミルク -NEW JAP MIX (plucking:Mr.NEWSMAN)-
TTITLE3=JESSICA -wave mix-
EXTD=YEAR: 2003
EXTT0=
EXTT1=
EXTT2=
EXTT3=
PLAYORDER=
